<svg width="126" height="160" viewBox="0 0 126 160" fill="none" xmlns="http://www.w3.org/2000/svg">
<path d="M77.4868 13.3415L58.536 32.2507C58.536 32.2507 55.3087 24.9669 58.481 14.5349C58.9896 12.8614 60.1478 11.4657 61.7047 10.6667C64.8564 9.04805 70.7162 7.57688 77.4868 13.345V13.3415Z" fill="#155675"/>
<path d="M40.9403 68.8446C40.1498 68.0044 30.1451 56.9861 34.3071 41.4479C38.6376 25.2753 57.6091 12.6006 57.6091 12.6006C50.9691 33.0118 65.7338 48.6083 65.7338 48.6083C73.1781 57.7783 77.1958 64.3557 79.3644 68.752" fill="#5EBEEB"/>
<path d="M58.4314 119.468C67.9756 103.717 50.4854 80.1718 43.5979 71.9003H48.5985C49.3065 71.9003 49.9183 71.4099 50.073 70.7241L53.3964 55.9746L60.442 85.3329C60.5657 85.8542 61.0331 86.2211 61.5727 86.2211C61.8373 86.2211 62.0848 86.1319 62.2807 85.9776C62.48 85.8267 62.6278 85.6107 62.6966 85.3535L67.79 65.7276L69.8384 70.9401C70.0446 71.4716 70.5567 71.818 71.1272 71.8214L80.7367 71.8386C81.8399 74.6266 81.8949 75.892 81.8949 75.892C88.119 104.005 58.8473 119.256 58.4314 119.468Z" fill="#58A0BF"/>
<path d="M96.3941 70.3089C96.3941 71.1697 95.693 71.8693 94.8303 71.8658L80.7392 71.8384L71.1297 71.8213C70.5592 71.8178 70.0471 71.4715 69.8409 70.9399L67.7925 65.7274L62.6991 85.3533C62.6303 85.6105 62.4825 85.8265 62.2832 85.9774C62.0873 86.1317 61.8399 86.2209 61.5752 86.2209C61.0356 86.2209 60.5682 85.854 60.4445 85.3327L53.3989 55.9744L50.0755 70.7239C49.9208 71.4097 49.309 71.9001 48.601 71.9001H21.333C20.9068 71.9001 20.5184 71.7287 20.24 71.4475C19.9582 71.1697 19.7864 70.7822 19.7864 70.3569C19.7864 69.5065 20.4806 68.8137 21.333 68.8172L40.9368 68.8446L47.625 68.8549L51.9176 48.3339C51.9898 47.9944 52.1754 47.7029 52.4297 47.4972C52.684 47.2914 53.0071 47.168 53.3577 47.168C54.0347 47.168 54.6259 47.6309 54.784 48.2894L61.6061 76.3445L65.2114 61.7082L66.0466 58.3235C66.1256 57.9977 66.3112 57.7234 66.5621 57.5279C66.8096 57.3324 67.1257 57.2193 67.4591 57.2193C68.1018 57.2193 68.6723 57.6411 68.8545 58.2583L69.3425 59.901L71.9786 68.752H94.8337C95.6964 68.752 96.3941 69.4482 96.3941 70.3089Z" fill="#DBE02E"/>
<path d="M57.0624 118.607C52.6151 124.471 41.8096 119.76 40.1187 117.332L57.7498 99.7393C57.7498 99.7393 61.5063 112.743 57.0624 118.607Z" fill="#155675"/>
<path d="M65.2092 61.706L61.6039 76.3423L54.7817 48.2871L65.2092 61.706Z" fill="#58A0BF"/>
<path d="M76.5364 68.7509H71.9791L69.343 59.9033L76.5364 68.7509Z" fill="#58A0BF"/>
<path d="M0.407043 148.869L2.2915 147.739C3.61816 150.181 5.15086 151.402 6.88959 151.402C7.63332 151.402 8.33183 151.231 8.98511 150.889C9.63839 150.538 10.1359 150.07 10.4776 149.487C10.8193 148.904 10.9902 148.286 10.9902 147.633C10.9902 146.889 10.7389 146.161 10.2364 145.447C9.54291 144.462 8.27655 143.276 6.43732 141.889C4.58803 140.492 3.43726 139.482 2.98499 138.859C2.20105 137.814 1.80908 136.683 1.80908 135.467C1.80908 134.502 2.04024 133.623 2.50256 132.829C2.96488 132.035 3.61314 131.412 4.44733 130.959C5.29156 130.497 6.20616 130.266 7.1911 130.266C8.23635 130.266 9.21124 130.527 10.1158 131.05C11.0304 131.562 11.9952 132.512 13.0103 133.899L11.2012 135.271C10.367 134.165 9.65346 133.437 9.06049 133.085C8.47756 132.733 7.83936 132.557 7.14587 132.557C6.25138 132.557 5.5177 132.829 4.94482 133.371C4.382 133.914 4.10059 134.583 4.10059 135.377C4.10059 135.859 4.20109 136.326 4.4021 136.779C4.60311 137.231 4.96995 137.723 5.50262 138.256C5.79409 138.537 6.74888 139.276 8.367 140.472C10.2866 141.889 11.6033 143.151 12.3168 144.256C13.0304 145.362 13.3872 146.472 13.3872 147.588C13.3872 149.196 12.7741 150.593 11.548 151.779C10.3319 152.965 8.84943 153.558 7.10065 153.558C5.75389 153.558 4.53276 153.201 3.43726 152.487C2.34176 151.764 1.33169 150.558 0.407043 148.869ZM33.6489 140.005L31.9755 141.045C30.5283 139.125 28.5533 138.166 26.0508 138.166C24.0507 138.166 22.3874 138.809 21.0607 140.095C19.7441 141.382 19.0858 142.945 19.0858 144.784C19.0858 145.98 19.3873 147.105 19.9904 148.161C20.6034 149.216 21.4376 150.035 22.4929 150.618C23.5583 151.201 24.7492 151.492 26.0659 151.492C28.478 151.492 30.4479 150.533 31.9755 148.613L33.6489 149.714C32.865 150.889 31.8097 151.804 30.483 152.457C29.1664 153.101 27.6639 153.422 25.9754 153.422C23.3824 153.422 21.2316 152.598 19.523 150.95C17.8144 149.301 16.9601 147.296 16.9601 144.935C16.9601 143.347 17.3571 141.874 18.1511 140.517C18.9552 139.15 20.0557 138.085 21.4527 137.321C22.8497 136.557 24.4126 136.176 26.1412 136.176C27.2267 136.176 28.2719 136.341 29.277 136.673C30.2921 137.005 31.1514 137.437 31.8549 137.97C32.5585 138.502 33.1565 139.181 33.6489 140.005ZM54.0614 136.598V153H51.981V150.181C51.0965 151.256 50.1015 152.065 48.996 152.608C47.9005 153.151 46.6994 153.422 45.3929 153.422C43.0712 153.422 41.0863 152.583 39.438 150.904C37.7998 149.216 36.9807 147.166 36.9807 144.754C36.9807 142.392 37.8098 140.372 39.4681 138.693C41.1265 137.015 43.1215 136.176 45.4532 136.176C46.7999 136.176 48.0161 136.462 49.1015 137.035C50.197 137.608 51.1568 138.467 51.981 139.613V136.598H54.0614ZM45.619 138.211C44.4431 138.211 43.3577 138.502 42.3627 139.085C41.3677 139.658 40.5737 140.467 39.9807 141.512C39.3978 142.558 39.1063 143.663 39.1063 144.829C39.1063 145.985 39.4028 147.09 39.9958 148.146C40.5888 149.201 41.3828 150.025 42.3777 150.618C43.3828 151.201 44.4582 151.492 45.6039 151.492C46.7597 151.492 47.8552 151.201 48.8904 150.618C49.9256 150.035 50.7196 149.246 51.2724 148.251C51.8352 147.256 52.1166 146.136 52.1166 144.889C52.1166 142.99 51.4885 141.402 50.2322 140.125C48.9859 138.849 47.4482 138.211 45.619 138.211ZM58.8253 136.598H60.9359V139.537C61.7802 138.412 62.7148 137.573 63.74 137.02C64.7651 136.457 65.8807 136.176 67.0868 136.176C68.3129 136.176 69.3984 136.487 70.3431 137.11C71.2979 137.733 72.0015 138.573 72.4537 139.628C72.906 140.683 73.1321 142.326 73.1321 144.558V153H71.0366V145.176C71.0366 143.286 70.9562 142.025 70.7954 141.392C70.5441 140.306 70.0718 139.492 69.3783 138.949C68.6848 138.397 67.7803 138.12 66.6647 138.12C65.3883 138.12 64.2425 138.542 63.2274 139.387C62.2224 140.231 61.559 141.276 61.2374 142.522C61.0364 143.336 60.9359 144.824 60.9359 146.985V153H58.8253V136.598ZM77.8056 153V130.266H79.9011V139.417C80.7856 138.331 81.7755 137.522 82.871 136.99C83.9665 136.447 85.1676 136.176 86.4741 136.176C88.7958 136.176 90.7757 137.02 92.4139 138.708C94.0622 140.387 94.8864 142.427 94.8864 144.829C94.8864 147.201 94.0572 149.226 92.3989 150.904C90.7405 152.583 88.7455 153.422 86.4138 153.422C85.0771 153.422 83.866 153.136 82.7806 152.563C81.6951 151.99 80.7353 151.131 79.9011 149.985V153H77.8056ZM86.248 151.387C87.4239 151.387 88.5093 151.1 89.5043 150.528C90.4993 149.945 91.2883 149.131 91.8712 148.085C92.4642 147.04 92.7607 145.935 92.7607 144.769C92.7607 143.603 92.4642 142.492 91.8712 141.437C91.2782 140.382 90.4792 139.563 89.4742 138.98C88.4792 138.387 87.4138 138.09 86.2781 138.09C85.1223 138.09 84.0218 138.387 82.9766 138.98C81.9414 139.563 81.1424 140.352 80.5795 141.346C80.0268 142.341 79.7504 143.462 79.7504 144.708C79.7504 146.608 80.3735 148.196 81.6198 149.472C82.8761 150.749 84.4188 151.387 86.248 151.387ZM106.51 136.176C109.032 136.176 111.123 137.09 112.781 138.919C114.289 140.588 115.043 142.563 115.043 144.844C115.043 147.136 114.244 149.141 112.646 150.859C111.058 152.568 109.012 153.422 106.51 153.422C103.997 153.422 101.942 152.568 100.344 150.859C98.7558 149.141 97.9618 147.136 97.9618 144.844C97.9618 142.573 98.7156 140.603 100.223 138.934C101.881 137.095 103.977 136.176 106.51 136.176ZM106.51 138.241C104.761 138.241 103.258 138.889 102.002 140.186C100.746 141.482 100.118 143.05 100.118 144.889C100.118 146.075 100.404 147.181 100.977 148.206C101.55 149.231 102.324 150.025 103.299 150.588C104.273 151.141 105.344 151.417 106.51 151.417C107.676 151.417 108.746 151.141 109.721 150.588C110.696 150.025 111.47 149.231 112.042 148.206C112.615 147.181 112.902 146.075 112.902 144.889C112.902 143.05 112.269 141.482 111.002 140.186C109.746 138.889 108.248 138.241 106.51 138.241Z" fill="#155675"/>
<path d="M116.594 132.762V124.827H119.274C119.894 124.827 120.403 124.933 120.801 125.145C121.199 125.354 121.493 125.642 121.684 126.009C121.875 126.376 121.971 126.793 121.971 127.26C121.971 127.728 121.875 128.142 121.684 128.504C121.493 128.865 121.2 129.149 120.805 129.356C120.41 129.56 119.905 129.662 119.29 129.662H117.12V128.794H119.259C119.683 128.794 120.023 128.732 120.282 128.608C120.543 128.484 120.731 128.309 120.847 128.081C120.966 127.852 121.026 127.578 121.026 127.26C121.026 126.942 120.966 126.665 120.847 126.427C120.729 126.19 120.539 126.006 120.278 125.877C120.017 125.745 119.672 125.679 119.243 125.679H117.554V132.762H116.594ZM120.328 129.197L122.281 132.762H121.165L119.243 129.197H120.328Z" fill="#155675"/>
<path fill-rule="evenodd" clip-rule="evenodd" d="M118.89 122.707C115.475 122.707 112.707 125.475 112.707 128.89C112.707 132.306 115.475 135.074 118.89 135.074C122.306 135.074 125.074 132.306 125.074 128.89C125.074 125.475 122.306 122.707 118.89 122.707ZM112 128.89C112 125.085 115.085 122 118.89 122C122.696 122 125.781 125.085 125.781 128.89C125.781 132.696 122.696 135.781 118.89 135.781C115.085 135.781 112 132.696 112 128.89Z" fill="#155675"/>
</svg>
